<svg width="639" height="83" viewBox="0 0 639 83" fill="none" xmlns="http://www.w3.org/2000/svg">
<path fill-rule="evenodd" clip-rule="evenodd" d="M132.33 67.7887H142.012V22.4587H159.348V13.641H115V22.4587H132.33V67.7887ZM192.609 68.7148C209.397 68.7148 221.265 55.9543 221.265 40.7148V40.5611C221.265 25.3217 209.553 12.7148 192.764 12.7148C175.977 12.7148 164.109 25.4754 164.109 40.7148V40.8685C164.109 56.1079 175.82 68.7148 192.609 68.7148ZM192.764 59.8971C181.91 59.8971 174.183 51.2331 174.183 40.7148V40.5611C174.183 30.0429 181.755 21.4557 192.609 21.4557C203.464 21.4557 211.197 30.1966 211.197 40.7148V40.8685C211.197 51.3927 203.625 59.8971 192.77 59.8971H192.764ZM255.306 68.638C269.593 68.638 278.81 60.5158 278.81 44.3503V13.641H269.207V44.8114C269.207 54.7917 263.976 59.8144 255.463 59.8144C246.949 59.8144 241.64 54.4784 241.64 44.4212V13.635H232.038V44.8055C232.038 60.5099 241.093 68.6321 255.308 68.6321L255.306 68.638ZM317.928 68.7148C327.608 68.7148 335.342 64.8488 340.728 60.2873V37.5464H317.463V45.8203H331.439V55.9543C328.08 58.4272 323.396 60.0567 318.243 60.0567C307.079 60.0567 299.662 51.8577 299.662 40.7148V40.5611C299.662 30.1966 307.311 21.4557 317.385 21.4557C324.333 21.4557 328.472 23.6981 332.69 27.2587L338.778 20.0626C333.156 15.3414 327.298 12.7148 317.773 12.7148C301.301 12.7148 289.588 25.5582 289.588 40.7148V40.8685C289.588 56.6498 300.835 68.7148 317.934 68.7148H317.928ZM353.22 67.7887H362.825V44.971H388.906V67.7887H398.51V13.641H388.906V36.1533H362.825V13.641H353.22V67.7887ZM435.99 67.7887H474.327V59.1247H445.593V13.641H435.99V67.7887ZM484.318 67.7887H525.228V59.2823H493.914V44.7405H521.32V36.2301H484.312V67.7887H484.318ZM493.92 22.1473H524.84V13.635H484.318V22.1473H493.92ZM531.949 67.7887H541.784C550.219 48.169 550.989 46.1276 560.289 24.6262C570.238 47.438 569.369 45.5602 578.793 67.7887H588.944L564.894 13.2528H555.993L531.943 67.7887H531.949ZM598.322 67.7887H607.925V45.7434H635.486V37.0794H607.925V22.307H639V13.641H598.322V67.7887Z" fill="#ffffff"/>
<path fill-rule="evenodd" clip-rule="evenodd" d="M0 46.3354V78.2306L8.30902 70.0213V41.5038C8.30902 40.2977 8.37749 39.1035 8.50793 37.9297L0 46.3354ZM38.5863 23.4861V15.1802C35.6977 15.5472 32.8897 16.3799 30.274 17.645V48.3201L38.5863 40.1076V23.4861ZM42.2592 68.0399H74.2159C76.3455 65.5262 78.1673 62.7729 79.6433 59.8371H49.6824L47.0029 62.4876L42.2658 67.1679L41.3799 68.0431H42.2658L42.2592 68.0399ZM60.5545 38.1251V23.1683H45.417V14.9579H68.8668V38.1262L60.5545 38.1251ZM75.691 29.9126V38.1251L84 38.1316V0H45.4105L45.417 8.20925H75.691V29.9126ZM53.7227 29.9126H45.4072L45.4137 38.1251L53.7227 38.1316V29.9126ZM34.5426 74.7843H67.0004C60.0099 79.9382 51.3465 83 42.0016 83L37.0101 82.9903H26.2336L16.5822 82.9968H4.83171L12.5092 75.4083L13.1407 74.7843L19.9692 68.0388L35.1024 53.0863L38.9472 49.2877H38.9537L43.4147 44.8738H55.1684L46.8562 53.0863L42.3962 57.497L42.256 57.6323L42.1745 57.7128L24.8955 74.7843H34.5426ZM82.3173 53.0831C83.1147 50.4051 83.6305 47.6531 83.8565 44.8706H64.4351L64.6275 45.0639L56.5131 53.0831H82.3206H82.3173ZM15.1365 39.3709V21.4725C14.8082 21.8999 14.4919 22.3349 14.1832 22.7784L0.306531 36.4884C2.69575 17.108 18.7507 1.74302 38.5863 0.144983V8.38645C33.1724 8.93321 27.9755 10.7772 23.4466 13.7583V55.0656L15.1365 63.2759V41.5038C15.1365 40.7864 15.1691 40.0786 15.2245 39.3741H15.1365V39.3709Z" fill="#2491EB"/>
</svg>
